<svg width="48" height="48" viewBox="0 0 48 48" fill="none" xmlns="http://www.w3.org/2000/svg">
<path fill-rule="evenodd" clip-rule="evenodd" d="M14.5513 0.493987C15.8507 -0.164662 17.3801 -0.164662 18.6794 0.493987L30.9718 6.72503C31.2317 6.85676 31.5376 6.85676 31.7974 6.72503L41.3206 1.89772C44.3893 0.342146 48 2.60448 48 6.08284V37.238C48 39.0104 47.0123 40.6306 45.4487 41.4232L33.4487 47.506C32.1493 48.1647 30.6199 48.1647 29.3206 47.506L17.0282 41.275C16.7683 41.1432 16.4624 41.1432 16.2026 41.275L6.67945 46.1023C3.61067 47.6579 0 45.3955 0 41.9172V10.762C0 8.98964 0.987703 7.36944 2.55132 6.57683L14.5513 0.493987ZM16.6154 9.02682C17.635 9.02682 18.4615 9.86479 18.4615 10.8985V31.4866C18.4615 32.5202 17.635 33.3582 16.6154 33.3582C15.5958 33.3582 14.7692 32.5202 14.7692 31.4866V10.8985C14.7692 9.86479 15.5958 9.02682 16.6154 9.02682ZM33.2308 16.5134C33.2308 15.4797 32.4042 14.6418 31.3846 14.6418C30.365 14.6418 29.5385 15.4797 29.5385 16.5134V37.1015C29.5385 38.1352 30.365 38.9731 31.3846 38.9731C32.4042 38.9731 33.2308 38.1352 33.2308 37.1015V16.5134Z" fill="#F15A29"/>
</svg>
