<svg width="48" height="48" viewBox="0 0 48 48" fill="none" xmlns="http://www.w3.org/2000/svg">
<path fill-rule="evenodd" clip-rule="evenodd" d="M17.0282 3.84209C16.7683 3.71036 16.4624 3.71036 16.2026 3.84209L4.20257 9.92493C3.88985 10.0835 3.69231 10.4075 3.69231 10.762V41.9172C3.69231 42.6128 4.41444 43.0653 5.0282 42.7542L14.5513 37.9269C15.8507 37.2682 17.3801 37.2682 18.6794 37.9269L30.9718 44.1579C31.2317 44.2896 31.5376 44.2896 31.7974 44.1579L43.7974 38.0751C44.1102 37.9165 44.3077 37.5925 44.3077 37.238V6.08284C44.3077 5.38717 43.5856 4.9347 42.9718 5.24582L33.4487 10.0731C32.1493 10.7318 30.6199 10.7318 29.3206 10.0731L17.0282 3.84209ZM14.5513 0.493987C15.8507 -0.164662 17.3801 -0.164662 18.6794 0.493987L30.9718 6.72503C31.2317 6.85676 31.5376 6.85676 31.7974 6.72503L41.3206 1.89772C44.3893 0.342146 48 2.60448 48 6.08284V37.238C48 39.0104 47.0123 40.6306 45.4487 41.4232L33.4487 47.506C32.1493 48.1647 30.6199 48.1647 29.3206 47.506L17.0282 41.275C16.7683 41.1432 16.4624 41.1432 16.2026 41.275L6.67945 46.1023C3.61067 47.6579 0 45.3955 0 41.9172V10.762C0 8.98964 0.987703 7.36943 2.55132 6.57683L14.5513 0.493987ZM16.6154 9.02684C17.635 9.02684 18.4615 9.86481 18.4615 10.8985V31.4866C18.4615 32.5203 17.635 33.3582 16.6154 33.3582C15.5958 33.3582 14.7692 32.5203 14.7692 31.4866V10.8985C14.7692 9.86481 15.5958 9.02684 16.6154 9.02684ZM31.3846 14.6418C32.4042 14.6418 33.2308 15.4797 33.2308 16.5134V37.1015C33.2308 38.1352 32.4042 38.9732 31.3846 38.9732C30.365 38.9732 29.5385 38.1352 29.5385 37.1015V16.5134C29.5385 15.4797 30.365 14.6418 31.3846 14.6418Z" fill="#C8CCCC"/>
</svg>
