<svg version="1.1" xmlns="http://www.w3.org/2000/svg" xmlns:xlink="http://www.w3.org/1999/xlink" width="16" height="16" viewBox="0,0,256,256"><g fill="#ffffff" fill-rule="evenodd" stroke="none" stroke-width="1" stroke-linecap="butt" stroke-linejoin="miter" stroke-miterlimit="10" stroke-dasharray="" stroke-dashoffset="0" font-family="none" font-weight="none" font-size="none" text-anchor="none" style="mix-blend-mode: normal"><g transform="translate(0,0.001) scale(16,16)"><path d="M15.817,0.113c0.11593,0.09504 0.1831,0.23709 0.183,0.387v14c-0.00014,0.23825 -0.16837,0.4433 -0.402,0.49l-5,1c-0.0647,0.01288 -0.1313,0.01288 -0.196,0l-4.902,-0.98l-4.902,0.98c-0.14683,0.02935 -0.29908,-0.00865 -0.4149,-0.10355c-0.11582,-0.0949 -0.18301,-0.23671 -0.1831,-0.38645v-14c0.00014,-0.23825 0.16837,-0.4433 0.402,-0.49l5,-1c0.06469,-0.01293 0.13131,-0.01293 0.196,0l4.902,0.98l4.902,-0.98c0.14678,-0.02953 0.29906,0.00826 0.415,0.103zM10,1.91l-4,-0.8v12.98l4,0.8zM11,14.89l4,-0.8v-12.98l-4,0.8zM5,14.09v-12.98l-4,0.8v12.98z"></path></g></g></svg>