<svg version="1.1" xmlns="http://www.w3.org/2000/svg" xmlns:xlink="http://www.w3.org/1999/xlink" width="16" height="16" viewBox="0,0,256,256"><g fill="#ffffff" fill-rule="nonzero" stroke="none" stroke-width="1" stroke-linecap="butt" stroke-linejoin="miter" stroke-miterlimit="10" stroke-dasharray="" stroke-dashoffset="0" font-family="none" font-weight="none" font-size="none" text-anchor="none" style="mix-blend-mode: normal"><g transform="translate(0,8) scale(16,16)"><path d="M1.5,0c-0.82843,0 -1.5,0.67157 -1.5,1.5v2c0,0.82843 0.67157,1.5 1.5,1.5h13c0.82843,0 1.5,-0.67157 1.5,-1.5v-2c0,-0.82843 -0.67157,-1.5 -1.5,-1.5zM2.5,2h3c0.27614,0 0.5,0.22386 0.5,0.5c0,0.27614 -0.22386,0.5 -0.5,0.5h-3c-0.27614,0 -0.5,-0.22386 -0.5,-0.5c0,-0.27614 0.22386,-0.5 0.5,-0.5zM12.427,2.427c-0.07169,-0.07151 -0.09317,-0.17919 -0.05439,-0.27273c0.03877,-0.09354 0.13014,-0.15445 0.23139,-0.15427h0.792c0.10125,-0.00018 0.19262,0.06073 0.23139,0.15427c0.03877,0.09354 0.0173,0.20122 -0.05439,0.27273l-0.396,0.396c-0.0469,0.04702 -0.11059,0.07345 -0.177,0.07345c-0.06641,0 -0.1301,-0.02643 -0.177,-0.07345zM0,8c0,-1.10457 0.89543,-2 2,-2h12c1.10457,0 2,0.89543 2,2v5c0,1.10457 -0.89543,2 -2,2h-12c-1.10457,0 -2,-0.89543 -2,-2zM1,11v2c0,0.55228 0.44772,1 1,1h12c0.55228,0 1,-0.44772 1,-1v-2zM15,10v-2c0,-0.55228 -0.44772,-1 -1,-1h-12c-0.55228,0 -1,0.44772 -1,1v2zM2,8.5c0,-0.27614 0.22386,-0.5 0.5,-0.5h9c0.27614,0 0.5,0.22386 0.5,0.5c0,0.27614 -0.22386,0.5 -0.5,0.5h-9c-0.27614,0 -0.5,-0.22386 -0.5,-0.5zM2,12.5c0,-0.27614 0.22386,-0.5 0.5,-0.5h6c0.27614,0 0.5,0.22386 0.5,0.5c0,0.27614 -0.22386,0.5 -0.5,0.5h-6c-0.27614,0 -0.5,-0.22386 -0.5,-0.5z"></path></g></g></svg>