<svg width="45" height="40" viewBox="0 0 45 40" fill="none" xmlns="http://www.w3.org/2000/svg">
<path fill-rule="evenodd" clip-rule="evenodd" d="M0 6.36364C0 2.8491 2.93813 0 6.5625 0H38.4375C42.0619 0 45 2.8491 45 6.36364C45 9.87818 42.0619 12.7273 38.4375 12.7273H6.5625C2.93813 12.7273 0 9.87818 0 6.36364ZM6.5625 3.63636C5.0092 3.63636 3.75 4.85741 3.75 6.36364C3.75 7.86987 5.0092 9.09091 6.5625 9.09091H38.4375C39.9908 9.09091 41.25 7.86987 41.25 6.36364C41.25 4.85741 39.9908 3.63636 38.4375 3.63636H6.5625ZM0 20C0 18.9958 0.839466 18.1818 1.875 18.1818H43.125C44.1605 18.1818 45 18.9958 45 20C45 21.0042 44.1605 21.8182 43.125 21.8182H1.875C0.839466 21.8182 0 21.0042 0 20ZM0 29.0909C0 28.0868 0.839466 27.2727 1.875 27.2727H43.125C44.1605 27.2727 45 28.0868 45 29.0909C45 30.0951 44.1605 30.9091 43.125 30.9091H1.875C0.839466 30.9091 0 30.0951 0 29.0909ZM0 38.1818C0 37.1777 0.839466 36.3636 1.875 36.3636H43.125C44.1605 36.3636 45 37.1777 45 38.1818C45 39.186 44.1605 40 43.125 40H1.875C0.839466 40 0 39.186 0 38.1818Z" fill="#C8CCCC"/>
</svg>
