<svg width="45" height="41" viewBox="0 0 45 41" fill="none" xmlns="http://www.w3.org/2000/svg">
<path d="M6.5625 0C2.93813 0 0 2.92032 0 6.52273C0 10.1251 2.93813 13.0455 6.5625 13.0455H38.4375C42.0619 13.0455 45 10.1251 45 6.52273C45 2.92032 42.0619 0 38.4375 0H6.5625Z" fill="#F15A29"/>
<path d="M1.875 18.6364C0.839466 18.6364 0 19.4707 0 20.5C0 21.5293 0.839466 22.3636 1.875 22.3636H43.125C44.1605 22.3636 45 21.5293 45 20.5C45 19.4707 44.1605 18.6364 43.125 18.6364H1.875Z" fill="#F15A29"/>
<path d="M0 29.8182C0 28.7889 0.839466 27.9545 1.875 27.9545H43.125C44.1605 27.9545 45 28.7889 45 29.8182C45 30.8474 44.1605 31.6818 43.125 31.6818H1.875C0.839466 31.6818 0 30.8474 0 29.8182Z" fill="#F15A29"/>
<path d="M1.875 37.2727C0.839466 37.2727 0 38.1071 0 39.1364C0 40.1656 0.839466 41 1.875 41H43.125C44.1605 41 45 40.1656 45 39.1364C45 38.1071 44.1605 37.2727 43.125 37.2727H1.875Z" fill="#F15A29"/>
</svg>
